<svg width="20" height="20" viewBox="0 0 20 20" fill="none" xmlns="http://www.w3.org/2000/svg">
<path d="M14.1667 10.0001L10 14.1667V11.6667H6.66667V8.33341H10V5.83341L14.1667 10.0001ZM1.66667 10.0001C1.66667 7.78994 2.54464 5.67033 4.10744 4.10752C5.67025 2.54472 7.78986 1.66675 10 1.66675C11.0943 1.66675 12.178 1.8823 13.189 2.30109C14.2001 2.71987 15.1187 3.3337 15.8926 4.10752C16.6664 4.88135 17.2802 5.80001 17.699 6.81105C18.1178 7.8221 18.3333 8.90573 18.3333 10.0001C18.3333 12.2102 17.4554 14.3298 15.8926 15.8926C14.3298 17.4554 12.2101 18.3334 10 18.3334C8.90565 18.3334 7.82202 18.1179 6.81097 17.6991C5.79993 17.2803 4.88127 16.6665 4.10744 15.8926C2.54464 14.3298 1.66667 12.2102 1.66667 10.0001ZM3.33333 10.0001C3.33333 11.7682 4.03571 13.4639 5.28596 14.7141C6.5362 15.9644 8.23189 16.6667 10 16.6667C11.7681 16.6667 13.4638 15.9644 14.714 14.7141C15.9643 13.4639 16.6667 11.7682 16.6667 10.0001C16.6667 8.23197 15.9643 6.53628 14.714 5.28604C13.4638 4.03579 11.7681 3.33341 10 3.33341C8.23189 3.33341 6.5362 4.03579 5.28596 5.28604C4.03571 6.53628 3.33333 8.23197 3.33333 10.0001Z" fill="#FFF"/>
</svg>
