<svg width="20" height="20" viewBox="0 0 20 20" fill="none" xmlns="http://www.w3.org/2000/svg">
<path d="M1.66666 10.0001C1.66666 7.78994 2.54464 5.67033 4.10744 4.10752C5.67024 2.54472 7.78986 1.66675 10 1.66675C11.0943 1.66675 12.178 1.8823 13.189 2.30109C14.2001 2.71987 15.1187 3.3337 15.8926 4.10752C16.6664 4.88135 17.2802 5.80001 17.699 6.81105C18.1178 7.8221 18.3333 8.90573 18.3333 10.0001C18.3333 12.2102 17.4554 14.3298 15.8926 15.8926C14.3298 17.4554 12.2101 18.3334 10 18.3334C8.90565 18.3334 7.82201 18.1179 6.81097 17.6991C5.79992 17.2803 4.88126 16.6665 4.10744 15.8926C2.54464 14.3298 1.66666 12.2102 1.66666 10.0001ZM14.1667 10.0001L10 5.83341V8.33341H6.66666V11.6667H10V14.1667L14.1667 10.0001Z" fill="#7B809A"/>
</svg>
