<svg width="19" height="19" viewBox="0 0 19 19" fill="none" xmlns="http://www.w3.org/2000/svg">
<path d="M7.91667 16.6249H11.0833C11.0833 17.4958 10.3708 18.2083 9.5 18.2083C8.62917 18.2083 7.91667 17.4958 7.91667 16.6249ZM16.625 15.0416V15.8333H2.375V15.0416L3.95833 13.4583V8.70825C3.95833 6.25409 5.54167 4.11659 7.91667 3.40409V3.16659C7.91667 2.29575 8.62917 1.58325 9.5 1.58325C10.3708 1.58325 11.0833 2.29575 11.0833 3.16659V3.40409C13.4583 4.11659 15.0417 6.25409 15.0417 8.70825V13.4583L16.625 15.0416ZM13.4583 8.70825C13.4583 6.49159 11.7167 4.74992 9.5 4.74992C7.28333 4.74992 5.54167 6.49159 5.54167 8.70825V14.2499H13.4583V8.70825Z" fill="#7B809A"/>
</svg>
