<svg width="20" height="20" viewBox="0 0 20 20" fill="none" xmlns="http://www.w3.org/2000/svg">
<path d="M14.1667 10.0001V2.50008C14.1667 2.27907 14.0789 2.06711 13.9226 1.91083C13.7663 1.75455 13.5543 1.66675 13.3333 1.66675H2.5C2.27898 1.66675 2.06702 1.75455 1.91074 1.91083C1.75446 2.06711 1.66666 2.27907 1.66666 2.50008V14.1667L5 10.8334H13.3333C13.5543 10.8334 13.7663 10.7456 13.9226 10.5893C14.0789 10.4331 14.1667 10.2211 14.1667 10.0001ZM17.5 5.00008H15.8333V12.5001H5V14.1667C5 14.3878 5.08779 14.5997 5.24408 14.756C5.40036 14.9123 5.61232 15.0001 5.83333 15.0001H15L18.3333 18.3334V5.83341C18.3333 5.6124 18.2455 5.40044 18.0893 5.24416C17.933 5.08788 17.721 5.00008 17.5 5.00008Z" fill="#7B809A"/>
</svg>
