<svg width="20" height="20" viewBox="0 0 20 20" fill="none" xmlns="http://www.w3.org/2000/svg">
<path d="M1.66666 18.3333V16.6666C1.66666 16.6666 5.83333 14.9999 10 14.9999C14.1667 14.9999 18.3333 16.6666 18.3333 16.6666V18.3333H1.66666ZM9.41666 7.58328C8.41666 4.33328 3.33333 5.08328 3.33333 5.08328C3.33333 5.08328 3.5 11.5833 8.25 10.5833C7.91666 8.16661 6.66666 7.49994 6.66666 7.49994C9 7.49994 9.16666 10.3333 9.16666 10.3333V14.1666C9.41666 14.1666 9.75 14.1666 10 14.1666C10.25 14.1666 10.5833 14.1666 10.8333 14.1666V10.6666C10.8333 10.6666 10.8333 7.41661 13.3333 6.58328C13.3333 6.58328 11.6667 9.08328 11.6667 10.7499C17.5 11.3333 17.5 3.33328 17.5 3.33328C17.5 3.33328 10.0833 2.49994 9.41666 7.58328Z" fill="#7B809A"/>
</svg>
