<svg width="20" height="20" viewBox="0 0 20 20" fill="none" xmlns="http://www.w3.org/2000/svg">
<path d="M19.1667 3.41675V1.91675L17.6667 1.75008C17.5833 1.75008 17.0833 1.66675 16.25 1.66675C12.8333 1.66675 10.3333 2.66675 8.91667 4.41675C7.83333 3.75008 6.33333 3.33341 4.58333 3.33341C3.75 3.33341 3.16667 3.41675 3.16667 3.41675L1.58333 3.66675L1.66667 5.08341C1.75 7.58341 3 12.3334 7.33333 12.3334C7.41667 12.3334 7.41667 12.3334 7.5 12.3334V15.1667C4.33333 15.5834 1.66667 16.6667 1.66667 16.6667V18.3334H18.3333V16.6667C18.3333 16.6667 15.6667 15.5834 12.5 15.1667V12.5001C17.75 12.4167 19.1667 6.50008 19.1667 3.41675ZM10 15.0001C9.75 15.0001 9.41667 15.0001 9.16667 15.0001V10.3334C9.16667 10.3334 9 7.50008 6.66667 7.50008C6.66667 7.50008 7.91667 8.16675 8.25 10.5834C7.91667 10.6667 7.58333 10.6667 7.33333 10.6667C3.5 10.6667 3.33333 5.08341 3.33333 5.08341C3.33333 5.08341 3.83333 5.00008 4.58333 5.00008C6.16667 5.00008 8.75 5.33341 9.5 7.58341C9.91667 3.83341 14.1667 3.33341 16.25 3.33341C17 3.33341 17.5 3.41675 17.5 3.41675C17.5 3.41675 17.5 10.9167 12.25 10.9167C12.0833 10.9167 11.8333 10.9167 11.6667 10.9167C11.6667 9.25008 13.3333 6.75008 13.3333 6.75008C10.8333 7.58341 10.8333 10.8334 10.8333 10.8334V15.0001C10.5833 15.0001 10.25 15.0001 10 15.0001Z" fill="#FFF"/>
</svg>
