<svg width="20" height="20" viewBox="0 0 20 20" fill="none" xmlns="http://www.w3.org/2000/svg">
<path d="M1.66667 2.5H18.3333C19.2083 2.5 20 3.29167 20 4.16667V15.8333C20 16.7083 19.2083 17.5 18.3333 17.5H1.66667C0.791667 17.5 0 16.7083 0 15.8333V4.16667C0 3.29167 0.791667 2.5 1.66667 2.5ZM11.6667 5V5.83333H18.3333V5H11.6667ZM11.6667 6.66667V7.5H17.9167H18.3333V6.66667H11.6667ZM11.6667 8.33333V9.16667H17.5V8.33333H11.6667ZM6.66667 11.5917C5 11.5917 1.66667 12.5 1.66667 14.1667V15H11.6667V14.1667C11.6667 12.5 8.33333 11.5917 6.66667 11.5917ZM6.66667 5C6.00363 5 5.36774 5.26339 4.8989 5.73223C4.43006 6.20107 4.16667 6.83696 4.16667 7.5C4.16667 8.16304 4.43006 8.79893 4.8989 9.26777C5.36774 9.73661 6.00363 10 6.66667 10C7.32971 10 7.96559 9.73661 8.43443 9.26777C8.90327 8.79893 9.16667 8.16304 9.16667 7.5C9.16667 6.83696 8.90327 6.20107 8.43443 5.73223C7.96559 5.26339 7.32971 5 6.66667 5Z" fill="#7B809A"/>
</svg>
